<?xml version="1.0" encoding="iso-8859-1"?>
<!-- Generator: Adobe Illustrator 19.0.0, SVG Export Plug-In . SVG Version: 6.00 Build 0)  -->
<svg version="1.1" id="Capa_1" xmlns="http://www.w3.org/2000/svg" xmlns:xlink="http://www.w3.org/1999/xlink" x="0px" y="0px"
	 viewBox="0 0 512 512" style="enable-background:new 0 0 512 512;" xml:space="preserve">
<path style="fill:#FEA838;" d="M407.17,338.441l4.513-12.236c10.865-29.609,3.549-62.828-18.744-85.131l-0.434-0.434
	c-15.169-15.169-23.691-35.736-23.691-57.188v-70.639C368.814,50.506,318.308,0,256,0l0,0c-62.308,0-112.814,50.506-112.814,112.814
	v70.639c0,21.452-8.522,42.019-23.691,57.188l0,0c-22.537,22.545-29.705,56.233-18.311,85.999l3.645,11.802H407.17z"/>
<path style="fill:#FEC9A3;" d="M429.559,512V399.186c0-47.928-38.851-86.78-86.78-86.78h-43.39v-78.102h-86.78v78.102h-43.39
	c-47.928,0-86.78,38.851-86.78,86.78V512H429.559z"/>
<g>
	<path style="fill:#4398D1;" d="M169.22,312.407c-47.928,0-86.78,38.851-86.78,86.78V512h95.458V312.407H169.22z"/>
	<path style="fill:#4398D1;" d="M342.78,312.407h-8.678V512h95.458V399.186C429.559,351.258,390.708,312.407,342.78,312.407z"/>
</g>
<polygon style="fill:#EBEBEB;" points="333.755,312.407 256,451.254 180.241,312.407 177.898,312.407 177.898,512 334.102,512 
	334.102,312.407 "/>
<g>
	<path style="fill:#3E8CC7;" d="M82.441,512h95.458v-37.749c-31.414,8.166-63.288,14.423-95.458,18.744V512z"/>
	<path style="fill:#3E8CC7;" d="M334.102,408.819V512h95.458V399.186c0.009-19.473-6.561-38.374-18.658-53.63
		C388.157,369.89,362.34,391.159,334.102,408.819z"/>
</g>
<path style="fill:#DBDBDB;" d="M177.898,499.851V512h156.203v-69.944C282.034,474.424,232.83,488.83,177.898,499.851z"/>
<path style="fill:#F7BB8F;" d="M299.39,275.873v-41.567h-86.78v41.567C239.842,289.87,272.158,289.87,299.39,275.873z"/>
<path style="fill:#FEC9A3;" d="M351.458,112.814c-52.068,0-78.102-78.102-78.102-78.102
	C256,104.136,160.542,156.203,160.542,156.203v17.356c0,52.719,42.739,95.458,95.458,95.458l0,0
	c52.719,0,95.458-42.739,95.458-95.458v-69.424"/>
<g>
	<circle style="fill:#875339;" cx="203.932" cy="138.847" r="17.356"/>
	<circle style="fill:#875339;" cx="308.068" cy="138.847" r="17.356"/>
</g>
<path style="fill:#F7BB8F;" d="M360.136,112.814h-8.678v52.068h8.678c14.379,0,26.034-11.655,26.034-26.034
	S374.515,112.814,360.136,112.814z"/>
<g>
	<path style="fill:#F0A789;" d="M248.797,225.627h-10.153v-17.356h10.153c13.425,0.026,26.294-5.32,35.753-14.839l12.323,12.323
		C284.143,218.537,266.83,225.688,248.797,225.627z"/>
	<path style="fill:#F0A789;" d="M264.678,190.915h-26.034c-4.79-0.017-8.669-3.914-8.652-8.704c0-1.345,0.321-2.673,0.929-3.879
		l17.356-34.712l15.447,7.81l-11.021,22.129h11.976V190.915z"/>
</g>
<g>
</g>
<g>
</g>
<g>
</g>
<g>
</g>
<g>
</g>
<g>
</g>
<g>
</g>
<g>
</g>
<g>
</g>
<g>
</g>
<g>
</g>
<g>
</g>
<g>
</g>
<g>
</g>
<g>
</g>
</svg>
