<?xml version="1.0" encoding="iso-8859-1"?>
<!-- Generator: Adobe Illustrator 19.0.0, SVG Export Plug-In . SVG Version: 6.00 Build 0)  -->
<svg version="1.1" id="Capa_1" xmlns="http://www.w3.org/2000/svg" xmlns:xlink="http://www.w3.org/1999/xlink" x="0px" y="0px"
	 viewBox="0 0 512 512" style="enable-background:new 0 0 512 512;" xml:space="preserve">
<polygon style="fill:#4398D1;" points="512,185.379 0,185.379 0,150.069 256,35.31 512,150.069 "/>
<circle style="fill:#3E8CC7;" cx="256" cy="114.759" r="35.31"/>
<g>
	<rect y="441.379" style="fill:#4398D1;" width="512" height="35.31"/>
	<rect x="35.31" y="220.69" style="fill:#4398D1;" width="70.621" height="185.379"/>
</g>
<rect x="61.793" y="247.172" style="fill:#3582BD;" width="17.655" height="132.414"/>
<g>
	<polyline style="fill:#4398D1;" points="17.655,441.379 17.655,406.069 494.345,406.069 494.345,441.379 	"/>
	<rect x="17.655" y="185.379" style="fill:#4398D1;" width="476.69" height="35.31"/>
</g>
<g>
	<rect x="17.655" y="185.379" style="fill:#3E8CC7;" width="476.69" height="17.655"/>
	<rect x="17.655" y="423.724" style="fill:#3E8CC7;" width="476.69" height="17.655"/>
</g>
<rect x="406.069" y="220.69" style="fill:#4398D1;" width="70.621" height="185.379"/>
<rect x="432.552" y="247.172" style="fill:#3582BD;" width="17.655" height="132.414"/>
<rect x="158.897" y="220.69" style="fill:#4398D1;" width="70.621" height="185.379"/>
<rect x="185.379" y="247.172" style="fill:#3582BD;" width="17.655" height="132.414"/>
<rect x="282.483" y="220.69" style="fill:#4398D1;" width="70.621" height="185.379"/>
<g>
	<rect x="35.31" y="220.69" style="fill:#3E8CC7;" width="70.621" height="17.655"/>
	<rect x="406.069" y="220.69" style="fill:#3E8CC7;" width="70.621" height="17.655"/>
	<rect x="158.897" y="220.69" style="fill:#3E8CC7;" width="70.621" height="17.655"/>
	<rect x="282.483" y="220.69" style="fill:#3E8CC7;" width="70.621" height="17.655"/>
</g>
<rect x="308.966" y="247.172" style="fill:#3582BD;" width="17.655" height="132.414"/>
<g>
	<rect y="459.034" style="fill:#3E8CC7;" width="512" height="17.655"/>
	<rect x="35.31" y="388.414" style="fill:#3E8CC7;" width="70.621" height="17.655"/>
	<rect x="406.069" y="388.414" style="fill:#3E8CC7;" width="70.621" height="17.655"/>
	<rect x="158.897" y="388.414" style="fill:#3E8CC7;" width="70.621" height="17.655"/>
	<rect x="282.483" y="388.414" style="fill:#3E8CC7;" width="70.621" height="17.655"/>
</g>
<g>
</g>
<g>
</g>
<g>
</g>
<g>
</g>
<g>
</g>
<g>
</g>
<g>
</g>
<g>
</g>
<g>
</g>
<g>
</g>
<g>
</g>
<g>
</g>
<g>
</g>
<g>
</g>
<g>
</g>
</svg>
